<svg xmlns="http://www.w3.org/2000/svg" xmlns:xlink="http://www.w3.org/1999/xlink" aria-hidden="true" focusable="false" width="1em" height="1em" style="-ms-transform: rotate(360deg); -webkit-transform: rotate(360deg); transform: rotate(360deg);" preserveAspectRatio="xMidYMid meet" viewBox="0 0 24 24"><path d="M6.969 3L4.094 8.188l1.468 2.624L8.438 6h10.25L17 3zm8.75 4l2.969 4.906L13.625 21H17l5-9-2.781-5zM12 8c-2.207 0-4 1.793-4 4s1.793 4 4 4 4-1.793 4-4-1.793-4-4-4zM3.531 9.219L2 12l4.969 9H12.5l1.656-3h-5.75zM12 10c1.102 0 2 .898 2 2 0 1.102-.898 2-2 2-1.102 0-2-.898-2-2 0-1.102.898-2 2-2z" fill="#BDBDBD" fill-opacity="0.5"/></svg>