<!--?xml version="1.0" encoding="utf-8"?-->
<!-- Generator: Adobe Illustrator 15.1.0, SVG Export Plug-In . SVG Version: 6.00 Build 0)  -->

<svg version="1.1" id="_x32_" xmlns="http://www.w3.org/2000/svg" xmlns:xlink="http://www.w3.org/1999/xlink" x="0px" y="0px" width="512px" height="512px" viewBox="0 0 512 512" style="width: 32px; height: 32px; opacity: 1;" xml:space="preserve">
<style type="text/css">

	.st0{fill:#4B4B4B;}

</style>
<g>
	<path class="st0" d="M486.302,285.135l-44.625,39.5L315.615,436.182c-7.953,7-18.047,10.75-28.453,10.75
		c-3.031,0-6.063-0.281-9.094-0.938l-72.047-15.953l-87.016-19.219L57.99,397.338l-8.734-1.953c-2.75-0.938-5.219-2.172-7.375-3.75
		c-3.469-2.531-6.219-5.781-8.094-9.547c-1.938-3.75-2.953-7.938-2.953-12.188c0-2.594,0.438-5.344,1.219-8.016
		c0.953-2.891,2.313-5.484,3.984-7.797c2.453-3.469,5.781-6.219,9.531-8.094c3.688-1.953,7.875-2.953,12.125-2.953h0.672
		l47.422,10.406l60.797,13.281l105.578,23.094c5.109,1.156,10.313,1.656,15.5,1.656c2.969,0,5.859-0.141,8.75-0.5
		c14.578-1.734,28.438-7.797,39.781-17.766l3.609-3.172l125.343-110.969l41.75-36.984c5.406-4.766,6.563-12.484,3.234-18.547
		c-0.5-1.016-1.156-2.016-1.938-2.891c-5.484-6.281-15.094-6.859-21.375-1.297l-44.625,39.5L316.13,350.4
		c-7.953,7.016-18.063,10.766-28.469,10.766c-3.031,0-6.063-0.297-9.094-0.938l-72.047-15.969l-87.016-19.203l-61-13.5l-0.094-0.016
		v-0.203l-0.422-0.078l-8.734-1.938c-0.438-0.156-0.813-0.359-1.234-0.516c-1.063-0.453-2.125-0.828-3.109-1.438
		c-0.859-0.359-1.734-0.938-2.516-1.516c-3.469-2.531-6.219-5.781-8.094-9.531c-1.953-3.75-2.969-7.938-2.969-12.203
		c0-2.609,0.438-5.344,1.234-8.016c0.938-2.891,2.313-5.484,3.969-7.797c2.453-3.469,5.781-6.203,9.531-8.078
		c3.688-1.953,7.875-2.969,12.141-2.969c0.719,0,1.438,0.078,2.172,0.078l33.344,7.219l29.531,6.344l145.875,31.563
		c18.047,3.969,36.891-0.938,50.75-13.219l89.672-78.984l53.656-47.234l37.906-33.422c8.234-7.297,11.703-18.563,8.875-29.172
		c-2.75-10.688-11.266-18.844-22.016-21.156l-11.422-2.453L393.38,58.838l-105.344-22.75c-18.047-3.969-36.891,0.938-50.75,13.219
		L96.552,172.932l-42.328,37.172l-36.813,32.359c-1.516,1.719-2.813,3.453-3.969,5.328c-0.656,0.797-1.234,1.516-1.813,2.391
		c-3.609,4.906-6.5,10.547-8.438,16.688c-1.813,5.703-2.688,11.547-2.688,17.25c0,12.344,3.984,24.109,10.969,33.797
		c2.203,3.063,4.813,5.844,7.594,8.453l-0.141,0.141l-2.031,1.734c-1.516,1.734-2.813,3.453-3.969,5.344
		c-0.641,0.781-1.219,1.516-1.797,2.375c-3.609,4.906-6.5,10.547-8.453,16.688c-1.797,5.703-2.672,11.547-2.672,17.25
		c0,12.328,3.969,24.109,10.969,33.781c3.531,4.906,7.797,9.234,12.797,12.859c4.906,3.609,10.531,6.5,16.656,8.375l0.656,0.219
		l64.188,14.078l60.797,13.281l105.578,23.109c5.125,1.156,10.328,1.656,15.516,1.656c17.703,0,34.938-6.359,48.531-18.266
		l3.609-3.172l125.343-110.984l41.734-36.969c6.281-5.547,6.859-15.156,1.297-21.438
		C502.192,280.15,492.599,279.572,486.302,285.135z" style="fill: rgb(75, 75, 75);"></path>
</g>
</svg>
